HIERARCHY
ROOT ui
{
	 OFFSET 0 0 0
	 CHANNELS 3 XPosition YPosition Z Position
	 EndSite
	 {
	 OFFSET 0 -1 0
	 }
}
ROOT li
{
	 OFFSET 0 0 0
	 CHANNELS 3 XPosition YPosition Z Position
	 EndSite
	 {
	 OFFSET 0 -1 0
	 }
}
ROOT ul
{
	 OFFSET 0 0 0
	 CHANNELS 3 XPosition YPosition Z Position
	 EndSite
	 {
	 OFFSET 0 -1 0
	 }
}
ROOT ll
{
	 OFFSET 0 0 0
	 CHANNELS 3 XPosition YPosition Z Position
	 EndSite
	 {
	 OFFSET 0 -1 0
	 }
}
ROOT tt
{
	 OFFSET 0 0 0
	 CHANNELS 3 XPosition YPosition Z Position
	 EndSite
	 {
	 OFFSET 0 -1 0
	 }
}
ROOT tb
{
	 OFFSET 0 0 0
	 CHANNELS 3 XPosition YPosition Z Position
	 EndSite
	 {
	 OFFSET 0 -1 0
	 }
}
ROOT td
{
	 OFFSET 0 0 0
	 CHANNELS 3 XPosition YPosition Z Position
	 EndSite
	 {
	 OFFSET 0 -1 0
	 }
}
ROOT v
{
	 OFFSET 0 0 0
	 CHANNELS 3 XPosition YPosition Z Position
	 EndSite
	 {
	 OFFSET 0 -1 0
	 }
}
ROOT bn
{
	 OFFSET 0 0 0
	 CHANNELS 3 XPosition YPosition Z Position
	 EndSite
	 {
	 OFFSET 0 -1 0
	 }
}
MOTION
Frames: 10
Frame Time: 0.002
6.15785002708435E-4	5.456230044364929E-4	0		0.4463926086425781	-2.32847314453125	0		-1.11383251953125	0.11143729400634765	0		-0.7016717529296875	-2.522107177734375	0		1.5682718505859374	-0.62826953125	0		3.188311279296875	-0.17575405883789064	0		4.59969384765625	0.036894142150878904	0		5.5884990234375	0.11873189544677734	0		-0.24410821533203125	5.89692822265625	0		
0.004413074970245361	0.0033274099826812744	0		0.4727068176269531	-2.330904541015625	0		-1.0381309814453126	0.10886325073242188	0		-0.7033050537109375	-2.52441455078125	0		1.5681851806640625	-0.6280281372070312	0		3.197078369140625	-0.17723341369628906	0		4.5994375	0.03790843200683594	0		5.58839453125	0.1260775833129883	0		-0.2458585205078125	5.89670751953125	0		
-0.002932598114013672	-0.00372465705871582	0		0.44507827758789065	-2.33052734375	0		-1.1275394287109375	0.09973745727539063	0		-0.6778153076171874	-2.52012158203125	0		1.565048583984375	-0.6317286987304688	0		3.195057373046875	-0.16452288818359376	0		4.5960966796875	0.03300348281860352	0		5.58826025390625	0.12830827331542968	0		-0.2618083801269531	5.8856923828125	0		
0.003929938077926636	0.003019273042678833	0		0.47038653564453126	-2.335921142578125	0		-1.12780419921875	0.09928299713134765	0		-0.750317138671875	-2.515408203125	0		1.564978515625	-0.6314656982421875	0		3.187719970703125	-0.17372407531738282	0		4.595849609375	0.03407400894165039	0		5.5817119140625	0.13080499267578125	0		-0.39888812255859374	5.8674091796875	0		
-0.0034011900424957275	-0.004031772136688232	0		0.4287681579589844	-2.336354736328125	0		-1.1149093017578124	0.10964598083496094	0		-0.6680830688476562	-2.530914306640625	0		1.564914794921875	-0.6311991577148437	0		3.164691162109375	-0.1617010040283203	0		4.5986923828125	0.041107219696044923	0		5.5815556640625	0.1278951416015625	0		-0.25126548767089846	5.8960478515625	0		
0.003470515012741089	0.0027213289737701416	0		0.4881828918457031	-2.3352060546875	0		-1.1092335205078125	0.10411993408203125	0		-0.7304391479492187	-2.516369384765625	0		1.582785400390625	-0.6361820068359375	0		3.205297119140625	-0.17657768249511718	0		4.593359375	0.03524541473388672	0		5.5814345703125	0.1301561279296875	0		-0.3702336120605469	5.8834521484375	0		
0.003251936912536621	0.002577035903930664	0		0.4506958923339844	-2.325709716796875	0		-1.0394305419921874	0.10673690032958984	0		-0.674037109375	-2.519463623046875	0		1.5678558349609375	-0.6267142333984375	0		3.19431591796875	-0.16174412536621094	0		4.6023076171875	0.04916740036010742	0		5.58773681640625	0.13215980529785157	0		-0.26894512939453125	5.8848125	0		
-9.98134970664978E-4	-5.102800130844116E-4	0		0.4729743957519531	-2.333030517578125	0		-1.1287923583984374	0.09752079772949218	0		-0.7007056274414063	-2.5264140625	0		1.56780322265625	-0.6264624633789062	0		3.187013916015625	-0.17099018859863283	0		4.59492626953125	0.03827478790283203	0		5.5741025390625	0.13993333435058594	0		-0.4389762268066406	5.85984375	0		
0.002839087963104248	0.0022985749244689943	0		0.44736111450195315	-2.33071533203125	0		-1.053037109375	0.09511746215820313	0		-0.6772635498046875	-2.524021728515625	0		1.5646998291015626	-0.630184814453125	0		3.18685302734375	-0.17036335754394533	0		4.59064990234375	0.0342923698425293	0		5.576939453125	0.15918220520019533	0		-0.40749612426757814	5.86616748046875	0		
-0.007483168125152588	-0.00770674991607666	0		0.449722412109375	-2.32877490234375	0		-1.163179443359375	0.10115615844726562	0		-0.7348919067382812	-2.5245654296875	0		1.5677000732421875	-0.6260032958984375	0		3.191607177734375	-0.17683795166015626	0		4.5876025390625	0.04723812866210937	0		5.5809921875	0.13848698425292968	0		-0.3929092712402344	5.87473291015625	0		
